<?xml version="1.0" encoding="UTF-8"?>
<svg id="Livello_4" xmlns="http://www.w3.org/2000/svg" version="1.1" viewBox="0 0 150 107.88">
  <!-- Generator: Adobe Illustrator 29.3.0, SVG Export Plug-In . SVG Version: 2.1.0 Build 146)  -->
  <defs>
    <style>
      .st0 {
        fill: #fff;
      }
    </style>
  </defs>
  <path class="st0" d="M61.2,49.94c-1.74-.31-3.32-.78-4.76-1.41-2.83-1.24-4.98-2.99-6.46-5.26-1.48-2.27-2.22-4.9-2.22-7.91v-10.51c0-3.24.77-6.06,2.32-8.46,1.55-2.4,3.76-4.25,6.63-5.54,2.87-1.29,6.29-1.94,10.25-1.94,3.14,0,5.85.37,8.13,1.11,2.28.74,4.47,1.82,6.56,3.23l-4.37,4.11c-1.55-.95-3.11-1.68-4.68-2.17-1.57-.49-3.36-.74-5.36-.74-3.46,0-6.14.87-8.03,2.6-1.89,1.73-2.84,4.2-2.84,7.4v10.8c0,3.16.88,5.55,2.63,7.17,1.73,1.6,4.28,2.4,7.67,2.43"/>
  <path class="st0" d="M92.57,57.7v5.83h-30.83v-4.06c0-3.28.83-6.01,2.49-8.2,1.66-2.19,4.04-4.18,7.14-5.97l6.56-3.77c2.23-1.29,3.78-2.4,4.65-3.31.86-.91,1.3-2,1.3-3.26v-1.37c0-1.37-.67-2.58-2.02-3.63-1.35-1.05-3.32-1.57-5.91-1.57-2.01,0-3.89.27-5.64.8-1.75.53-3.68,1.41-5.78,2.63l-3.83-4.34c2.32-1.52,4.77-2.69,7.35-3.49,2.57-.8,5.39-1.2,8.44-1.2,3.28,0,6.14.5,8.58,1.49,2.44.99,4.28,2.3,5.54,3.91,1.25,1.62,1.88,3.34,1.88,5.17v1.77c0,2.02-.8,3.93-2.39,5.74-1.6,1.81-4.22,3.7-7.86,5.68l-5.26,2.86c-2.51,1.41-4.24,2.73-5.19,3.97s-1.48,2.68-1.57,4.31h22.35Z"/>
  <polyline class="st0" points="89.47 72.16 90.12 68.49 100.15 68.49 99.34 72.16"/>
  <polyline class="st0" points="63.87 72.16 64.69 68.49 76.04 68.49 76.87 72.16"/>
  <polyline class="st0" points="40.99 72.16 40.17 68.49 50.37 68.49 51.05 72.16"/>
  <g>
    <path class="st0" d="M29.51,83.48c-.61-1.97-1.25-3.5-3.28-3.5h-2.47v13.87c0,1.83.97,1.81,2.78,1.86v1.39h-9.59v-1.39c1.78-.06,2.7-.08,2.7-1.86v-13.87h-2.36c-2.03,0-2.67,1.47-3.22,3.5h-2.03l.64-4.92h18.17l.61,4.92h-1.95Z"/>
    <path class="st0" d="M57.77,81.43l-5.31,15.98h-1.81l-4.67-13.09-3.83,13.09h-1.97l-5.45-15.9c-.31-1.06-1.11-1.56-2.45-1.56v-1.39h8.73v1.39c-1.2.03-2.17.25-2.22,1.2l3.14,10.67,4-13.26h1.81l4.31,11.98,2.72-8.78c.11-.39.19-.67.19-.92,0-.69-.58-.89-2.36-.89v-1.39h7.73v1.39c-1.53.03-2.08.14-2.56,1.47Z"/>
    <path class="st0" d="M69.97,97.57c-6,0-10.56-4.11-10.56-9.73s4.47-9.73,10.56-9.73,10.62,4,10.62,9.73-4.53,9.73-10.62,9.73ZM69.97,79.54c-4.47,0-5.89,4.22-5.89,8.28s1.39,8.28,5.89,8.28,5.89-4.22,5.89-8.28-1.36-8.28-5.89-8.28Z"/>
    <path class="st0" d="M100.51,97.6c-5.92,0-10-4.06-10-9.53s4.06-9.95,10.06-9.95c2.14,0,3.78.58,5.5,1.75.14-.36.28-.78.42-1.28h1.67l.47,7.03h-2.06c-.81-3.45-2.33-6.03-5.89-6.03-4,0-5.53,4.39-5.53,8.03,0,4.06,1.75,8.09,6.11,8.09,2.7,0,5.17-1.78,6.36-4.53l1.92,1c-1.67,3.53-5.28,5.42-9.03,5.42Z"/>
    <path class="st0" d="M135.42,81.43l-5.31,15.98h-1.81l-4.67-13.09-3.83,13.09h-1.97l-5.45-15.9c-.31-1.06-1.11-1.56-2.45-1.56v-1.39h8.73v1.39c-1.2.03-2.17.25-2.22,1.2l3.14,10.67,4-13.26h1.81l4.31,11.98,2.72-8.78c.11-.39.19-.67.19-.92,0-.69-.58-.89-2.36-.89v-1.39h7.73v1.39c-1.53.03-2.08.14-2.56,1.47Z"/>
  </g>
</svg>